<svg xmlns="http://www.w3.org/2000/svg" viewBox="0 0 511.928 511.928" xml:space="preserve">
  <path d="M391.599 387.235 268.292 258.702l123.2-123.2c4.16-4.16 4.16-10.88 0-15.04l-.32-.32-128-117.333c-4.373-3.947-11.093-3.733-15.04.64-1.813 1.92-2.773 4.587-2.773 7.253v224.107l-109.76-114.24c-4.053-4.267-10.88-4.373-15.04-.32-4.16 4.053-4.373 10.88-.32 15.04l118.187 123.093-118.08 117.973c-4.053 4.267-3.947 10.987.213 15.04 4.16 3.947 10.667 3.947 14.827 0l109.867-109.76v219.627c0 5.867 4.8 10.667 10.667 10.667 2.453 0 4.907-.853 6.827-2.453l128-106.667c4.48-3.733 5.12-10.453 1.387-15.04-.215-.214-.322-.427-.535-.534zM266.586 34.808l101.867 93.44-101.867 101.974V34.808zm0 443.734V287.715l101.76 105.92-101.76 84.907z"/>
</svg>
