<svg xmlns="http://www.w3.org/2000/svg" viewBox="0 0 256.55 75.94"><defs><style>.cls-1{fill:#9e612b}.cls-3{fill:#27261f}.cls-4{fill:#fff}.cls-6{fill:#c18346}.cls-8{fill:#201910}.cls-10{fill:#2b337e}.cls-11{fill:#d44549}.cls-13{fill:#301705}.cls-14{fill:#3f2610}.cls-17{fill:#141310}.cls-22{fill:#34a50f}.cls-23{fill:#efbc84}.cls-27{fill:#f46311}</style></defs><path d="M36.29 68.77l.82 2.95 1.73-.62-.43-4.79-2.12 2.46z" class="cls-1"/><path fill="#071049" d="M109.69 185.17s1 3.94 4.22 3.42a93.23 93.23 0 0010.22-3l2.2 6.56 3.26-.55-1.72-8.83a2.79 2.79 0 00-2.4-2.25c-2.28-.12-10.56-1.49-10.56-1.49z" transform="translate(-90.38 -122.55)"/><path d="M127 193.6l2.41-.12a3 3 0 002.77 1.13s.75 0 .8 1l-5.9.49z" class="cls-3" transform="translate(-90.38 -122.55)"/><path d="M90.38 167.21c0-14.21 11.41-25.41 26.12-25.41a27.25 27.25 0 0112.5 2.94l-1.26 7.49a21.2 21.2 0 00-11.2-3.29 18.24 18.24 0 100 36.47 21.39 21.39 0 0011.83-3.64l1.33 7.49a28.69 28.69 0 01-13.37 3.36c-14.6 0-25.95-11.2-25.95-25.41zM134.48 176.1c0-9.31 7.42-16.45 17-16.45s16.87 7.14 16.87 16.45-7.42 16.38-16.87 16.38-17-7.14-17-16.38zm27-.07a10 10 0 10-10 10.22 9.91 9.91 0 009.96-10.25zM188.32 149.78v41.93h-7.49v-41.93h-13.59l1.19-7.07h32.21l1.19 7.07zM206 148.87a4.62 4.62 0 114.62 4.48 4.5 4.5 0 01-4.62-4.48zm1.07 12.13l7.07-1.12v31.85h-7.07zM252.51 172.67v19h-7.08v-18.2c0-5-2.8-7.63-6.86-7.63-4.41 0-7.56 3.15-7.56 8.12v17.71h-7.07v-30.8l6.79-1v4.06a12.44 12.44 0 019.73-4.27c7.29-.01 12.05 4.89 12.05 13.01zM280.43 191.71l-11.69-15.26v15.26h-7.07V142l7.07-1v33.53l11.13-14.07h8.68L276 175.4l13.17 16.31zM319.28 181.28l2.31 5.67a20.74 20.74 0 01-14 5.53c-9.8 0-16.94-7.14-16.94-16.38a16.3 16.3 0 0116.66-16.45c7.91 0 14.21 5.18 15.19 13.86l-24.22 7.84a10.15 10.15 0 009.38 5.39c4.06 0 7.98-1.68 11.62-5.46zm-22.19-5.46l18-5.88a8.28 8.28 0 00-7.77-4.62c-5.68 0-10.02 4.55-10.23 10.5zM346.93 159.86v6.65c-6.58 0-10.08 3.15-10.08 9.8v15.4h-7.07v-30.8l6.65-1v5.18c2.03-3.41 5.46-5.23 10.5-5.23z" class="cls-4" transform="translate(-90.38 -122.55)"/><path fill="#b9d4ff" d="M124.92 163.81l1.08-1.6a.73.73 0 00-.41-1c-.9-.42-6.17-3.2-5.94-4.22.35-1.55 1-5.07 3.06-4.44s7.91 2.21 10.41 3.17c.62.24 8 2.63 7.53 4.42s-1.23 5.29-4.5 4.42l-5.51-1.68a5.9 5.9 0 00-3.56.14z" transform="translate(-90.38 -122.55)"/><path d="M31.47 69.62l-.31 3.05 1.84.05 1.35-4.61-2.88 1.51z" class="cls-6"/><path d="M113 173.85l3.76 4.36a4.56 4.56 0 002.34 1.26 59.47 59.47 0 006.48-.4s.25.62 1.8.19c0 0 1.14.31.94.77 0 0 .61 1.14.35-.87-.22-1.65-2.21-1.53-2.93-1.43h-.25l-6-1-2.29-5.38z" class="cls-1" transform="translate(-90.38 -122.55)"/><path fill="#9e3536" d="M117.5 171.66l-3.17 1.88.06-4.34.49-2s.24-.36.36-.33c1.2.35 2.26 4.79 2.26 4.79z" transform="translate(-90.38 -122.55)"/><path d="M111.75 164.54l1.56-1.86.86-4.2 4 .26 1.13 1.51a5.45 5.45 0 00.28 2.86s.3.6-1 0l-.51 1.1-2.17.54a2.5 2.5 0 00-.94 1.34c-.72 2.2-3.21-1.55-3.21-1.55z" class="cls-6" transform="translate(-90.38 -122.55)"/><path d="M116.86 161.21a2.77 2.77 0 01.66-1.15 4.56 4.56 0 001.07-1.37l-4.11-1.69s-2.28.65-1.68 3.5c0 0-.09 2.44.86 2.12s1.22-.07 1.1-.61c0 0-1.14-1.82.51-1.84.31 0 .75.8.72 1" class="cls-8" transform="translate(-90.38 -122.55)"/><path d="M115.69 161c-.3.94-1 2.27-.63 2.85.7.94 2.18 1.94 2.58 1.27a6.41 6.41 0 00.86-2c.1-.26-.4-.35-1.5-.21-.49.07-.56-.48-.44-1.14" class="cls-6" transform="translate(-90.38 -122.55)"/><path fill="#326f39" d="M112.17 159.59l10.93 1.25a.7.7 0 00-.69-.91l-2.56-.24s-.54-3.67-4-3.22a3.9 3.9 0 00-2.82 1.09s-.28.15-.72 1l-.06.27z" transform="translate(-90.38 -122.55)"/><circle cx="28.17" cy="38.93" r=".22" class="cls-8"/><rect width="1.46" height=".38" x="117.75" y="160.64" class="cls-8" rx=".15" transform="rotate(-1.94 -3545.55 2768.97)"/><path d="M108.33 180.21s-.52 4 2.66 4.73a93.18 93.18 0 0010.59 1l-.36 6.91 3.24.69 1.64-8.85s.54-2.71-1.41-3-12.82-2.46-12.82-2.46z" class="cls-10" transform="translate(-90.38 -122.55)"/><path d="M114.47 175.81c-.21 2.14 2.07 4.4 2.07 4.4-2 .2-8.37 3.66-8.37 3.66s-1.23-3.24-.24-11.36a18.27 18.27 0 013.82-8.41s1.86 2.08 3.59 1.77c0 0 2.69 9.09 1.91 11.63-.41 1.32-6.25-1.8-6.25-1.8l-.78-1.59z" class="cls-11" transform="translate(-90.38 -122.55)"/><path d="M121.32 194.41l2.29.77a3 3 0 002.16 2.07s.71.24.36 1.25l-5.66-1.71z" class="cls-3" transform="translate(-90.38 -122.55)"/><path d="M112.06 172.74l3 6.14a4.64 4.64 0 001.84 1.49c1.18.47 6 1.51 6 1.51s.17.8 1.6.62c0 0 1 .63.78 1.15 0 0 .45 1.51.39-1s-2.74-2.39-2.74-2.39l-5.31-2.58-2.37-5.75z" class="cls-6" transform="translate(-90.38 -122.55)"/><path d="M25.07 47.92l.4 2.15-4.06.81-1.08-1.78" class="cls-11"/><rect width="2.54" height="5.09" x="126.67" y="175.27" fill="#27261f" stroke="#27261f" stroke-miterlimit="10" stroke-width=".1" rx=".2" transform="rotate(27.65 331.76 -67.1)"/><path d="M127.17 177.59s.51-.06.15.34-1.4 1-1.79.79.32-.92.32-.92z" class="cls-1" transform="translate(-90.38 -122.55)"/><path d="M203.59 44.61l-3.09 1.54-.79-1.92 4.32-3.25-.44 3.63z" class="cls-13"/><path d="M291.83 168.61l-1.72-2.1a3.35 3.35 0 01-3-1.45s-.54-.65-1.46.12l4.05 5.28z" class="cls-3" transform="translate(-90.38 -122.55)"/><path d="M205.15 45.49l-2.24 2.62-1.48-1.46 2.71-4.68 1.01 3.52z" class="cls-14"/><path d="M294.12 170.21l-2.4-1.27a3.37 3.37 0 01-3.37-.16s-.74-.39-1.29.68l5.78 3.3z" class="cls-3" transform="translate(-90.38 -122.55)"/><path fill="#a11" d="M319.47 155.93s.62 4.24-.87 5.85-12.28 1.39-16.58.35c-1.27-.3-8.58 5.26-8.58 5.26l-2.64-2s7.09-8.69 10.37-9.22c3.07-.49 11.24-.56 11.24-.56z" transform="translate(-90.38 -122.55)"/><path fill="#f23636" d="M319.47 155.93s.62 4.24-.87 5.85-12.28 1.39-16.58.35c-1.27-.3-7.32 7.26-7.32 7.26l-2.7-2.47s6.1-8.74 9.38-9.27c3.07-.49 12.1-1 12.1-1z" transform="translate(-90.38 -122.55)"/><path d="M216.21 35.43l-5.13.25-1.52-2.78 3.74-.45 2.91 2.98z" class="cls-3"/><path d="M216.21 34.67l-5.13.26-1.52-2.79 3.74-.44 2.91 2.97z" class="cls-17"/><path d="M301.24 154.89c-.34-1.63 1.59-2.18 2.3-2.32h.25l2.95-1.63.72 2.07c-1.65.44-3.32.82-3.32.82s0 .67-1.65.77c0 0-1 .67-.63 1.05 0-.04-.21 1.23-.62-.76z" class="cls-13" transform="translate(-90.38 -122.55)"/><path fill="#074870" d="M312.35 145.59s-.63 3.41-7.31 5.11a2.36 2.36 0 00.31 3.59c2 1.92 7.9-3.06 7.9-3.06l1.18-3.1z" transform="translate(-90.38 -122.55)"/><path d="M316.76 144.6l-.81-3.06.51-4.27-3.89-1-1 .69a1.72 1.72 0 00-.68.95 5.59 5.59 0 01-1 2.08s-.49.47.93.27l.14 1.2 1.9 1.21a9.89 9.89 0 01.95 2.17c.64 2.25 2.95-.24 2.95-.24z" class="cls-14" transform="translate(-90.38 -122.55)"/><path d="M314.2 139.22c0 1 .29 2.49-.3 2.91-1 .68-2.7 1.16-2.87.4a6.54 6.54 0 01-.19-2.15c0-.28.49-.2 1.49.28.44.22.69-.28.79-.94" class="cls-14" transform="translate(-90.38 -122.55)"/><circle cx="220.95" cy="16.19" r=".22" class="cls-8"/><path d="M301.5 155.17c0-2 3-1.81 3-1.81l2.12-.66.65 1.87c-1.43.07-2.68.11-2.68.11s-.17.64-1.77.42c0 0-1.1.46-.83.9.01 0-.48 1.21-.49-.83z" class="cls-14" transform="translate(-90.38 -122.55)"/><rect width="1.23" height=".22" x="310.93" y="138.05" class="cls-8" rx=".11" transform="rotate(-165.42 258.5 82.67)"/><path fill="#1a6093" d="M316.8 143.12s4 5.9 2.67 12.81c0 0-4.16 1.85-6.56.45-.88-.51-1.61-9.37-.31-11.48 0 0 .45-.71.84-.8 0 0 1.08.26 3.36-.98z" transform="translate(-90.38 -122.55)"/><path fill="#267fb5" d="M313.71 145s-1.83 6.09-5.87 6.36-2.5 3.82-2.5 3.82.33 3.64 5.59.94 5.15-9 5.15-9-.01-4.89-2.37-2.12z" transform="translate(-90.38 -122.55)"/><path d="M216.21 34.67v.76l-5.13.25-.05-.77 5.18-.24z" class="cls-3"/><path d="M206.61 29.79l4.47 5.83-1.06-2.82-4.57-6.13 1.16 3.12z" class="cls-3"/><path d="M205.45 25.92l1.16 3.11v.76l-1.16-3.12v-.75z" class="cls-3"/><path d="M206.61 29.03l4.47 5.84-1.06-2.82-4.57-6.13 1.16 3.11z" class="cls-17"/><path fill="#caffbd" d="M307.19 137.8l-1.41-4.36c-.37-1.34-.62-2.25-1.11-2.35-1-.2-15.7-1.35-15.71-2.39 0-1.59-.12-6.27 2.06-6.14s20.19 2.38 22.85 2.74c.67.09 2.1-.09 2 1.76s.05 4.66-3.33 4.57l-2.6-.08a3.13 3.13 0 00-3.08 3.55z" transform="translate(-90.38 -122.55)"/><path d="M312.58 133.76s-.6-1.78 1.22-1.4c0 0 .37-1.2 1.31-.18 0 0 .87-1.36 1.47.12 0 0 1.05-.5 1.05.49 0 0 1.75-.82 1.41 1.23 0 0 2 .59.6 2 0 0 .72.25 0 1 0 0 .81.74-.35 1.22 0 0-.79 1.67-1.63 0 0 0-.56 1.22-1.12 0 0 0-2.68.36-1.28-1.39 0 0-1.52 1.2-1.32-.61 0 0-1.53.62-.88-.79-.06-.09-1.91-.65-.48-1.69z" class="cls-8" transform="translate(-90.38 -122.55)"/><path d="M313.09 138.54a2.23 2.23 0 01-1.29-1.81s-.11-1 1.77-1.36a3.81 3.81 0 013.27 1.21s.21 5-1 5a1.46 1.46 0 01-1.5-1.11c-.26-1.17.48-3-1.21-1.89" class="cls-8" transform="translate(-90.38 -122.55)"/><path d="M293.06 126.21l-.06.79h-.25l.1-.8c0-.22-.07-.35-.23-.37a.33.33 0 00-.36.32l-.09.77h-.25l.1-.8a.28.28 0 00-.24-.36.32.32 0 00-.35.32l-.1.77h-.25l.16-1.31h.25v.18a.44.44 0 01.39-.14.42.42 0 01.37.28.52.52 0 01.46-.18.48.48 0 01.35.53zM294.09 127.18v-.09a.44.44 0 01-.34.08.48.48 0 11.12-1 .44.44 0 01.3.15v-.07c0-.17 0-.26-.25-.29a1.2 1.2 0 00-.33 0l.07-.21a.76.76 0 01.3 0c.34 0 .49.22.46.5l-.09.66v.25zm.05-.45a.28.28 0 00-.26-.32.29.29 0 00-.33.25.29.29 0 00.26.31.28.28 0 00.33-.24zM295.5 127.36l-.45-.72-.08.65h-.25l.27-2.12h.25l-.18 1.45.58-.55h.32l-.63.57.49.76zM297.17 127.14l.06.22a.82.82 0 01-.62.17.7.7 0 11.17-1.39.63.63 0 01.56.65l-1.09.2a.44.44 0 00.39.32.66.66 0 00.53-.17zm-.94-.36l.85-.16a.38.38 0 00-.33-.26.46.46 0 00-.52.42zM297.87 125.54l.48.06a1.05 1.05 0 11-.27 2.08l-.48-.06zm.24 1.89a.8.8 0 10.2-1.58h-.21l-.2 1.58zM301.36 128.19l-1.31-1.8-.2 1.52h-.26l.27-2.17 1.31 1.79.19-1.49h.27zM303.1 127.64l-.78-.1-.37.63h-.29l1.24-2 .69 2.29h-.29zm-.07-.26l-.2-.7-.38.63zM303.77 128.2l.09-.27a.83.83 0 00.54.33.34.34 0 00.42-.3.38.38 0 00-.26-.39l-.13-.06a.62.62 0 01-.43-.67.56.56 0 01.67-.48 1 1 0 01.52.23l-.08.26a.87.87 0 00-.47-.25.31.31 0 00-.37.27c0 .15 0 .28.3.4l.13.06a.63.63 0 01.4.66.62.62 0 01-.73.52 1 1 0 01-.6-.31zM305.82 127.54l-.09.69a.18.18 0 00.16.23.43.43 0 00.2 0v.23a.83.83 0 01-.23 0 .38.38 0 01-.35-.46l.09-.71h-.2l.07-.21h.16v-.29l.27-.11v.43l.37.05v.22zM307.23 127.47v.24a.39.39 0 00-.49.38l-.09.67h-.25l.16-1.31h.25v.22a.5.5 0 01.42-.2zM307.51 127.55h.26l-.17 1.34h-.25zm0-.53a.16.16 0 01.19-.14.16.16 0 01.15.18.17.17 0 11-.34 0zM309.31 128.28l-.1.8h-.25l.1-.77a.32.32 0 00-.28-.4.36.36 0 00-.4.34l-.09.75h-.25l.16-1.31h.25v.18a.51.51 0 01.45-.13.49.49 0 01.41.54zM311 128.12l-.22-.05a.57.57 0 01.14.44.59.59 0 01-.36.46.52.52 0 01.2.47.55.55 0 01-.65.47.56.56 0 01-.52-.52l.23-.08a.37.37 0 00.32.39.34.34 0 00.08-.68.41.41 0 00-.34.13l-.08-.19a.41.41 0 01.11-.07.57.57 0 01-.24-.54.6.6 0 01.71-.5l.68.05zm-.32.37a.38.38 0 00-.34-.43.38.38 0 10.34.43zM311.07 129.21l.06-.21a.7.7 0 00.37.19.19.19 0 00.23-.16c0-.09 0-.15-.2-.23a.42.42 0 01-.27-.43.38.38 0 01.46-.32.75.75 0 01.36.15l-.07.21a.67.67 0 00-.31-.15c-.12 0-.2 0-.21.13s0 .14.18.22h.05a.44.44 0 01.3.45.41.41 0 01-.5.35.78.78 0 01-.45-.2zM312.33 128.55a1.64 1.64 0 01.87-1.27l.12.21a1.44 1.44 0 00-.29 2.32l-.17.18a1.65 1.65 0 01-.53-1.44zM313.16 129.83a1.41 1.41 0 00.73-1.08 1.43 1.43 0 00-.44-1.24l.17-.17a1.68 1.68 0 01-.34 2.7z" class="cls-22" transform="translate(-90.38 -122.55)"/><path d="M169.17 145.46c0 .07 0 0-.06.1a.17.17 0 01-.08-.06.13.13 0 000-.06l.05-.05h.07l.02.07zm.06.4a.57.57 0 000 .13v.18a.09.09 0 010 .06v.07c0 .02 0 0-.08 0h-.06a.19.19 0 010-.07.37.37 0 000-.11v-.11a.65.65 0 010-.2v-.08c0-.02 0 0 0 0s.05.05.06.09a.57.57 0 01.08.04zM170 145.32a.2.2 0 00.07.06s.06.09.06.13 0 .05-.05.05h-.09a.2.2 0 00-.12-.13h-.16c-.02 0 0 .05 0 .08v.28c0 .06.05 0 .07 0h.08a.06.06 0 01.06 0h.06c.06 0 .06 0 .06.06v.07H169.87a.2.2 0 000 .11.71.71 0 00.08.18.17.17 0 010 .07.09.09 0 010 .06.17.17 0 01-.06-.06.37.37 0 010-.14.53.53 0 010-.12s0-.06 0 0-.15.07-.16 0 .07 0 .1 0h.09v-.08a1.11 1.11 0 010-.17.76.76 0 010-.16.11.11 0 01.06-.09.1.1 0 01.05 0 .31.31 0 01.21.05s-.24-.27-.24-.25zM171.08 145.15l-.06.06a.24.24 0 00-.06.08c-.06 0-.07.14-.07.21V145.73a.41.41 0 000 .11v.09c0 .09 0 0 .05.07a.29.29 0 00.07.12l.14.13h-.11a1.09 1.09 0 01-.13-.17l-.06-.09a.36.36 0 010-.09.32.32 0 010-.09.13.13 0 000-.06.41.41 0 010-.11.36.36 0 010-.23.44.44 0 01.1-.19v-.06l.05-.16s.07 0 .07.06.03.06.01.09zM171.7 145v.1a.53.53 0 000 .12.34.34 0 000 .1h.14c.02 0 .13 0 .12.08s-.1.07-.16.08-.09 0-.08.05a.15.15 0 010 .07v.05a.41.41 0 000 .11v.13s0 .1.06.09a.15.15 0 00.1-.06s.09-.05.11 0a.09.09 0 010 .12.26.26 0 01-.1.07s-.07.05-.12 0h-.1l-.06-.08a1.36 1.36 0 01-.06-.29v-.14a.14.14 0 000-.06h-.05-.06c-.06 0 0 0 0 0a.11.11 0 01-.11 0v-.07c0-.07 0 0 .07 0h.2a.18.18 0 000-.1.22.22 0 010-.08.22.22 0 000-.08 1 1 0 010-.1h.06c.06 0 .02-.11.04-.11zM172.7 145.56a.13.13 0 000 .06.16.16 0 000 .09v.08a.09.09 0 010 .1c-.08 0-.07.07-.07.13v.18a.28.28 0 010 .09V146.28a1.68 1.68 0 010-.45.22.22 0 000-.08v-.06a.5.5 0 00-.08-.07l-.1-.09v-.07l-.06-.05-.07-.08a.08.08 0 010-.05v-.05a.06.06 0 01.08 0l.13.17a.41.41 0 01.05.09h.06c.06 0 0 0 .07.06s0-.09 0-.11v-.1-.11a.14.14 0 010-.09c.09 0 .08.08 0 .14a.48.48 0 00-.01.28zM173.53 145.33v.1a.42.42 0 01-.12.3h-.07c-.02 0-.07 0-.07.06v.35a.09.09 0 01-.07.06v-.09a.28.28 0 000-.09 1.25 1.25 0 000-.19h-.07c-.07 0 0 0 0-.05s.07-.05 0-.13a.24.24 0 000-.08h-.07a.11.11 0 010-.05h.07a.39.39 0 01.14 0h.05c.06 0 .11 0 .14.06a.24.24 0 01.07-.25zm-.37.13v.19c0 .04 0 0 .05 0h.06c.06 0 0 0 0 0a.36.36 0 000-.09.19.19 0 010-.08v-.06c0-.06 0 0-.09 0l-.13.06s.1-.03.11-.02zM174.25 145.3v.09a.06.06 0 00-.06 0H173.85h.37a.14.14 0 00.1-.06c0 .05-.05.1-.16.15h-.13a.2.2 0 01-.1 0h-.07l-.1-.09a.15.15 0 01-.06-.11v-.07a.18.18 0 010-.06.07.07 0 000-.05.22.22 0 01.1-.14.27.27 0 01.34 0 .33.33 0 01.12.16.13.13 0 01-.01.18zm-.45-.08h.22a.11.11 0 00-.08-.07h-.16zM175.55 145.08h-.2-.35a.1.1 0 01.07 0H175.63v.07c0 .02-.07-.06-.08-.07zm0 .28H175.14h-.05.55c.02 0 0 0 0 0a.06.06 0 010 .07zM176.33 145h-.05a.61.61 0 01-.13 0h-.4.54v.06l.04-.06zm0 .28H175.76a.06.06 0 010-.06H176.2a.22.22 0 01.11 0h.07v.07l-.04-.02zM177.1 144.91h-.4-.06.47a.06.06 0 010 .07zm0 .27h-.25-.13a.11.11 0 01-.08 0h-.09v-.05a.08.08 0 01.07 0h.54a.05.05 0 010 .06l-.04-.01zM177.92 144.54a.35.35 0 010 .11.11.11 0 010 .08c-.06 0 0 0 0-.08a.34.34 0 010-.1c0-.06 0-.18.08-.18s-.07.1-.08.17zm.22-.06V144.65h-.08c-.02 0 0 0 0-.05v-.1-.13c0-.03 0-.06.07-.07a.13.13 0 00.01.18zM179 144.87v.18l-.06-.14c-.01-.04 0-.06-.07 0h-.23a.61.61 0 010 .11c0 .06-.05.09-.07.09s0 0 0-.07a.17.17 0 010-.08v.04a.19.19 0 000-.1v-.14s0-.12.05-.15v-.05a.23.23 0 00.08-.11l.07.12h.06zm-.24-.12a.29.29 0 00-.08-.1.16.16 0 00-.05.11v.09a.89.89 0 000 .11s.07 0 .09-.06a.16.16 0 00.09 0zM179.15 144.38a.61.61 0 010 .12V144.65h-.08v-.08a.3.3 0 010-.08v-.06c0-.06.05-.09.08-.05zm.13-.15c.06 0 .07.11.09.16s0 .07 0 .1 0 0-.07-.06a.47.47 0 010-.1s-.05-.08-.05-.11v-.07zM179.88 144.21h.05v.06a.14.14 0 01.05.11 1.23 1.23 0 010 .27.44.44 0 000 .1 1 1 0 010 .1V145a.18.18 0 00-.08.09l-.07.06c-.07.06-.06.06 0 0v-.07s0-.05.06-.09a.17.17 0 01.06-.08v-.06-.14-.12-.07a.13.13 0 000-.09.36.36 0 00-.11-.2.27.27 0 00-.07-.08l-.07-.05v-.08c0-.08 0 0 .07-.06s.1.09.17.13-.07.09-.06.12zM181.29 144.29c.05 0 .08.07 0 .11a.26.26 0 00-.15 0l-.11.14a.55.55 0 00-.1.35v.12a.09.09 0 01-.13 0 .19.19 0 010-.08.29.29 0 000-.09.09.09 0 000-.07.21.21 0 010-.06v-.12h.07c.07 0 0 .1.05.11s0 0 0-.06v-.07a1.21 1.21 0 01.1-.14.24.24 0 01.13-.11h.06s.06-.05.08-.03zM182.06 144.41c0 .06 0 .1-.05.1h-.39.06a.14.14 0 00.07 0h.18a.17.17 0 00.11-.06s0 .1-.15.15H181.72a.22.22 0 01-.11 0h-.08l-.1-.09a.34.34 0 01-.06-.12v-.06c0-.06 0 0 0 0v-.09a.23.23 0 01.1-.14.44.44 0 01.16-.06.43.43 0 01.19.06.31.31 0 01.11.16zm-.45-.07h.27a.11.11 0 00-.07-.06h-.11zM182.55 143.75v.11a.16.16 0 000 .12.13.13 0 000 .09h.14c.03 0 .13 0 .11.07s-.1.08-.16.08-.08 0-.07.05V144.39a.41.41 0 000 .11.61.61 0 010 .13s0 .1.06.09a.16.16 0 00.1-.05h.12c.03 0 0 .08 0 .11l-.1.07a.2.2 0 01-.13 0h-.09c-.05 0-.05 0-.07-.08a1.59 1.59 0 01-.06-.3v-.14-.05h-.15a.14.14 0 01-.12 0v-.07c0-.07 0 0 .07-.05s.05 0 .09 0h.12v-.1a.22.22 0 010-.08.22.22 0 000-.08 1 1 0 000-.1h.07zM183.12 144.26a.66.66 0 000 .14v.05c0 .05 0 0 0 0s0 .07.09.07h.08a.14.14 0 00.1 0 .19.19 0 00.05-.11v-.08-.1c0-.02 0-.1-.09-.11s0-.09 0-.08h.11v.07c0 .07 0 0 0 0V144.45c0 .05-.07.09-.11.11a.28.28 0 01-.22 0 .31.31 0 01-.15-.1c-.05-.06-.06-.14-.11-.2a.5.5 0 010-.17.13.13 0 010-.06v-.08c0-.08.08 0 .1 0a.36.36 0 01.15.31zM184.35 143.94s.08.07 0 .12a.19.19 0 00-.15 0 .28.28 0 00-.11.13.57.57 0 00-.1.35v.13a.12.12 0 01-.13 0v-.09-.09a.25.25 0 000-.07v-.06-.11c0-.04 0 0 0 0h.07c.07 0 0 .1 0 .12s0 0 .05-.06 0 0 0-.07a.42.42 0 01.09-.14.23.23 0 01.13-.11h.06a.06.06 0 01.09-.05zM185.09 144v.19l.05.06v.12c0-.08-.07-.19-.12-.27l-.07-.09V144.3a.17.17 0 010 .07v.08a.05.05 0 010 .07.12.12 0 01-.09 0 .12.12 0 010-.07.28.28 0 010-.09.08.08 0 010-.05.08.08 0 010-.06.62.62 0 010-.22.06.06 0 01.06 0v.07c0 .07 0 .11.05.12V144v-.09a.2.2 0 010-.08h.09a.08.08 0 01.08 0l.06.06a.35.35 0 01-.11.11zM185.93 143.64a.52.52 0 010 .11s0 .05-.06.07 0 0 0-.07v-.11c0-.04 0-.18.08-.18s-.01.1-.02.18zm.23-.07V143.74c0 .03 0 0 0 0h-.09v-.11-.12c0-.03 0-.07.07-.07s-.01.11.02.13zM186.36 143.41v.13a.61.61 0 000 .13v.09a.73.73 0 00.08-.09h.28a.19.19 0 01.06.15.44.44 0 010 .16.84.84 0 01-.08.19s-.06 0-.07.06a.39.39 0 01-.15.11h-.08s-.06 0-.07-.05 0-.09 0-.14v-.19-.12a.68.68 0 000-.14.16.16 0 010-.12v-.1-.16a.09.09 0 010-.07v.09a.17.17 0 00.03.07zm.16.64v.07c0 .07 0 .06 0 0l.09-.06h.05V144c0-.06 0 0 0 0a.16.16 0 000-.09v-.18c0-.03-.1 0-.13.05s-.1.06-.09.11 0 .11 0 .14a.43.43 0 00.08.02zM187.19 143.34V143.66a.5.5 0 010 .17.76.76 0 000 .15c0 .06 0 .1.05.16a.06.06 0 010 .07h-.15v-.16a1.27 1.27 0 010-.28.13.13 0 000-.06v-.07a.41.41 0 000-.11v-.05a.57.57 0 010-.13.34.34 0 010-.1v-.05c0-.05.07 0 .08 0a.48.48 0 01.02.14zM187.52 143.76v.14a.14.14 0 000 .06.23.23 0 00.09.08h.19a.27.27 0 000-.11v-.09a.33.33 0 000-.1c-.05 0 0-.1-.09-.11s0-.09 0-.08h.11V143.96c0 .05-.08.09-.11.11a.25.25 0 01-.22 0 .27.27 0 01-.15-.1 2 2 0 01-.11-.2.47.47 0 010-.17v-.06c0-.06.05 0 .05-.08s.09 0 .1 0a.12.12 0 01.14.3zM188.74 143.66c0 .06 0 .09-.05.1a.06.06 0 00-.06 0H188.3h.37a.26.26 0 00.1-.07c0 .05 0 .1-.16.15h-.13a.2.2 0 01-.1 0h-.07a.43.43 0 01-.1-.09.14.14 0 01-.06-.11.2.2 0 010-.07.18.18 0 010-.06.26.26 0 01.1-.13.33.33 0 01.17-.07.36.36 0 01.3.23.43.43 0 01.02.12zm-.45-.08h.22a.08.08 0 00-.07-.07h-.13l-.02.07zM189 143.27v.12c0 .04 0 .06.05.09v.05h-.09c-.02 0 0 0 0 0a.59.59 0 010-.08.19.19 0 010-.08.07.07 0 000-.06s.04-.09.04-.04zm.14-.15c.06 0 .06.11.08.16s0 .07 0 .1 0 0-.07-.07a.23.23 0 010-.1s0-.07-.05-.11a.09.09 0 010-.06zM189.77 143.85a.41.41 0 010 .19.12.12 0 010 .07s0 .05-.06.06 0 0 0-.05.05-.06.08-.08.06-.05.06-.08a.86.86 0 000-.16v-.09c0-.03 0 0 0 0h.07c.02 0-.15.1-.15.14zm-.08-.46v.11a.15.15 0 00-.07 0v-.07a.15.15 0 000-.08h.05a.1.1 0 00.02.04zM171.36 148.19a.07.07 0 010-.05h.1a.7.7 0 00.18-.05h.05a.06.06 0 010 .07h-.09v.06a.38.38 0 000 .1v.19a.74.74 0 010 .12H171.72a.07.07 0 01.07 0 .09.09 0 010 .07s-.06 0-.1.06a.36.36 0 00-.15 0 1 1 0 01-.17 0h-.06a.08.08 0 01.08 0h.12v-.1a.11.11 0 000-.08v-.12-.09-.09h-.06s-.06-.1-.09-.09zM172.5 148.23v.05a.78.78 0 010 .14v.19a.09.09 0 010-.06 1.59 1.59 0 00-.12-.27.28.28 0 00-.06-.09s0 .06-.06.1v.19a.19.19 0 010 .07v.08a.05.05 0 010 .07.12.12 0 01-.09 0 .12.12 0 010-.07.27.27 0 010-.09.07.07 0 010-.05v-.05a.42.42 0 010-.06.62.62 0 010-.22.08.08 0 01.05 0h.05v.19-.08-.09a.12.12 0 010-.08h.09a.08.08 0 01.07 0 .23.23 0 01.07.07zM173.13 148h.1a.08.08 0 01.09 0l.05.07V148.28c0 .05 0 0 0 0v.08a.94.94 0 010 .16v.12a.08.08 0 01-.08 0s-.06 0 0-.07 0-.07 0-.11a.81.81 0 010-.16.15.15 0 010-.07v-.07c0-.07-.05-.15-.11-.15s0 0 0 .06v.12c0 .05-.06.09-.06.15a.18.18 0 01-.05.08.36.36 0 010 .1l-.05.06c-.05.06-.05 0-.08 0s-.05-.09-.05-.14v-.06a.59.59 0 000-.13.44.44 0 010-.1.42.42 0 000-.12 1 1 0 010-.17.11.11 0 010-.08v-.07a.09.09 0 010-.07h.13v.35a.53.53 0 010 .12s0 .25.07.24 0 0 0-.06a.35.35 0 00.05-.13v-.05a.05.05 0 00-.01-.11zM173.72 147.75c0 .08 0 .06-.07.1s-.07 0-.07-.06 0 0 .06-.06h.06a.14.14 0 00.02.02zm.05.41v.13a.17.17 0 010 .1v.14a.17.17 0 010 .07h-.14a.15.15 0 010-.07.43.43 0 000-.11v-.1a.68.68 0 010-.2v-.09c0-.02 0 0 0 0v.09a.53.53 0 01.14.04zM174 147.62v.35l.09-.08c.03-.02 0 0 0 0h.18a.1.1 0 01.1 0 .18.18 0 01.06.14 1.11 1.11 0 010 .17.51.51 0 01-.09.18s-.05 0-.07.06a.39.39 0 01-.15.11h-.09s-.05 0-.06-.06v-.14-.14-.12a.59.59 0 000-.14.16.16 0 010-.12v-.1-.16a.08.08 0 010-.07h.05a.1.1 0 010 .09.17.17 0 00-.02.03zm.15.64v.08c0 .08 0 .06 0 0h.09l.06-.05v-.05a.16.16 0 000-.09v-.17a.27.27 0 00-.14 0s-.09.06-.08.11v.15zM174.81 147.65c0 .07 0 0-.06.09a.1.1 0 01-.08-.06.09.09 0 000-.05h.06a.06.06 0 01.06 0s.02-.01.02.02zm.06.4a.57.57 0 000 .13v.18a.07.07 0 010 .06v.07c0 .02 0 0-.09 0h-.05a.64.64 0 010-.07.41.41 0 000-.11v-.1a.69.69 0 010-.2v-.09c0-.03 0 0 0 0l.06.09c.06.09.08-.01.08.04zM175.39 147.39a.11.11 0 010 .11.16.16 0 000 .12.14.14 0 000 .09h.13c.02 0 .14 0 .12.08s-.1.07-.16.08h-.08a.2.2 0 010 .07v.16a.74.74 0 010 .14v.08a.16.16 0 00.11-.05s.09-.05.11 0a.11.11 0 010 .12.27.27 0 01-.1.06s-.08.05-.13 0h-.1l-.06-.08a1 1 0 01-.05-.3.68.68 0 010-.14.08.08 0 000-.05h-.05-.06c-.06 0 0 0 0 0a.13.13 0 01-.12 0v-.07c0-.02 0 0 .07 0h.2v-.1a.22.22 0 010-.08.22.22 0 010-.08.26.26 0 010-.1h.06zM176.43 147.86v.14a.29.29 0 010 .13v.05a.26.26 0 01-.11.07.18.18 0 01-.1 0 .06.06 0 01-.09 0H176.01c-.05 0 0-.08 0-.11a.22.22 0 010-.14.56.56 0 010-.12v-.06a.3.3 0 01.08-.08h.13c.03 0 .2 0 .27.06a.22.22 0 01-.06.06zm-.42 0a.35.35 0 00-.06.14v.07a.08.08 0 00.08 0h.13a.29.29 0 000-.13c0-.08-.14-.06-.19-.06a.12.12 0 01-.08 0s.11-.04.11-.02zM177.17 147.61c.05 0 .08.07 0 .12a.26.26 0 00-.15 0c-.05 0-.09.1-.11.14a.56.56 0 00-.11.35v.12c0 .03-.11 0-.13 0a.28.28 0 010-.09.29.29 0 000-.09v-.07a.07.07 0 010-.06v-.11c0-.04 0 0 0 0h.07c.07 0 0 .11 0 .12a.05.05 0 000-.06v-.07c0-.07.06-.09.09-.14a.28.28 0 01.13-.11h.07l.14-.05zM178.5 147.69c0 .06 0 .1-.05.1h-.39.2a.07.07 0 00.05 0h.06l.11-.06s0 .1-.15.14h-.13a.23.23 0 01-.11 0h-.08l-.01.13a.17.17 0 01-.06-.12.18.18 0 010-.06.13.13 0 010-.06.2.2 0 01.1-.14.44.44 0 01.16-.06.36.36 0 01.19.07.33.33 0 01.11.16.09.09 0 010-.1zm-.45-.08h.22a.11.11 0 00-.08-.07h-.16l.02.07zM179.31 147.4c.05 0 .08.07 0 .12a.26.26 0 00-.15 0c-.05 0-.09.1-.11.14a.56.56 0 00-.11.35v.12a.12.12 0 01-.13 0 .28.28 0 010-.09.29.29 0 000-.09v-.07a.09.09 0 010-.06v-.12h.07c.07 0 0 .1 0 .12v-.06-.07a.42.42 0 01.09-.14.28.28 0 01.13-.11h.07s.12-.06.14-.04zM180.12 147a.49.49 0 010 .12V147.34c0-.02.06-.05.08-.08a.07.07 0 00.06 0h.06a.06.06 0 00.06 0 .14.14 0 01.11 0 .28.28 0 01.06.15.55.55 0 010 .17.61.61 0 01-.09.18s-.05 0-.06.06a.35.35 0 01-.15.11h-.08l-.07-.05a.4.4 0 000-.15v-.14-.12a.77.77 0 010-.15.23.23 0 010-.11v-.11-.16a.07.07 0 010-.06.05.05 0 01.05 0 .08.08 0 010 .08.2.2 0 00-.03.04zm.15.64v.07c0 .07 0 .06 0 0l.08-.05a.15.15 0 00.06 0v-.06c0-.06 0 0 0 0a.16.16 0 000-.09v-.18c0-.03-.1 0-.13.05s-.09 0-.09.1v.15zM181 147a.07.07 0 000 .06.27.27 0 010 .09.28.28 0 000 .09.91.91 0 010 .17.66.66 0 000 .14c0 .06 0 .11.05.17s0 .05 0 .07h-.06a.06.06 0 01-.08-.05.76.76 0 010-.15.94.94 0 010-.29.13.13 0 010-.06v-.06a.41.41 0 010-.11.11.11 0 000-.06.24.24 0 010-.12v-.11c0-.04 0 0 0 0h.07a.41.41 0 01.02.22zM181.55 147.82a.11.11 0 01-.06 0 .63.63 0 01-.19 0c-.07 0-.12-.07-.13-.13v-.07s.06-.06.06-.09a.12.12 0 01.08 0h.18c-.02 0 0-.07-.06-.08s0-.06-.1 0l-.1.05h-.05.07a.14.14 0 01.09 0h.1s.1.06.12.09a1.22 1.22 0 01.1.24v.24a.53.53 0 010 .14H181.54h-.06zm0-1H181.32v-.07a.15.15 0 010-.07l.05-.05h.13s.09 0 .11.1a.22.22 0 01-.03.1zm0 .69h-.19a.08.08 0 000 .07H181.66v-.05a.11.11 0 00-.03-.01zm-.28-.74a.06.06 0 000 .05.09.09 0 00.06-.06h-.13zM183.05 146.79a.2.2 0 00.07.06s.07.09.06.13a.06.06 0 01-.06.05h-.08a.21.21 0 00-.12-.14h-.08a.07.07 0 00-.08 0v.18a1.1 1.1 0 000 .18h.2a.08.08 0 01.07 0 .09.09 0 01.06.06.08.08 0 010 .07h-.1-.06a.16.16 0 000 .1 1 1 0 00.08.18.19.19 0 010 .08v.06s-.06-.05-.06-.07a.74.74 0 010-.14.53.53 0 010-.12s0-.05-.05-.05-.15.07-.16.05h.25v-.08a1 1 0 010-.17.9.9 0 010-.16.18.18 0 01.06-.09h.05a.37.37 0 01.21.06s-.31-.27-.26-.24zM183.89 147.12v.28c0 .04 0 0-.05 0l-.1.07h-.1a.12.12 0 01-.1 0h-.07v-.11a.17.17 0 010-.14.36.36 0 010-.11v-.06-.05a.24.24 0 01.08-.09h.14c.03 0 .19 0 .26.06a.18.18 0 01-.06.15zm-.42 0a.46.46 0 00-.07.14.15.15 0 000 .07h.26c.01 0 0 0 0 0v-.06a.57.57 0 000-.13c0-.07-.13-.06-.19-.06a.11.11 0 01-.08 0s.09.02.08.04zM184.63 146.87c.05 0 .08.07 0 .12a.2.2 0 00-.15 0 .35.35 0 00-.11.13.63.63 0 00-.11.35v.13a.12.12 0 01-.14 0 .25.25 0 010-.09v-.08a.16.16 0 000-.07v-.05a.11.11 0 010-.06v-.11c0-.04 0 0 0 0h.07c.07 0 0 .1 0 .11l.05-.06c.05-.06 0 0 0-.07s.07-.09.1-.14a.22.22 0 01.13-.1h.06c.06 0 .08-.03.1-.01zM185.37 146.67a.7.7 0 000 .14.43.43 0 000 .07V147.12a.06.06 0 01.05.06v.17a.22.22 0 010 .08h-.09v-.05-.09c0-.02 0 0-.06 0l-.1.05h-.13a.29.29 0 01-.29-.13.22.22 0 010-.11.42.42 0 010-.16.13.13 0 000-.05v-.07a.42.42 0 01.14-.09.39.39 0 01.15-.06h.06v-.15a.86.86 0 010-.16.15.15 0 010-.07h.06a.2.2 0 010 .11.71.71 0 00.21.27zm-.37.33a.16.16 0 000 .07.22.22 0 000 .16c0 .07.09.09.15.09h.2a.15.15 0 000-.06.56.56 0 010-.12.79.79 0 000-.09h-.16a.25.25 0 00-.19-.05zM185.76 146.56c0 .08 0 .06-.06.1a.16.16 0 01-.08-.06l.06-.06h.06s.02 0 .02.02zm.06.4v.32a.11.11 0 010 .06.09.09 0 010 .07h-.14a.17.17 0 010-.07.43.43 0 000-.11v-.1a1.52 1.52 0 010-.21v-.08c0-.02 0 0 0 0s.05 0 .06.08a.62.62 0 01.08.08z" transform="translate(-90.38 -122.55)"/><path d="M100 61.17l2.72 2.25-.36 3.3-1.97-.36" class="cls-23"/><path d="M187.14 191.71l6.38-.52-.36-2.73-2.6.3a3.23 3.23 0 01-2.76 1.71" class="cls-3" transform="translate(-90.38 -122.55)"/><path d="M194.6 176.69a47.86 47.86 0 01-1.5 9.29c-1.35 5.23-2.71-2.25-2.71-2.25l-.09-7.34" class="cls-23" transform="translate(-90.38 -122.55)"/><path d="M187.8 190.47a3.31 3.31 0 002.76-1.71l2.6-.3.36 2.73-6.38.52s-.61-1.14.66-1.24z" class="cls-3" transform="translate(-90.38 -122.55)"/><path d="M107.94 63.18l2.95 1.93.02 3.32-1.99-.13" class="cls-23"/><path d="M201.62 190.13l-2.55.59a3.22 3.22 0 01-2.55 2s-.79.19-.52 1.31l6.29-1.24z" class="cls-3" transform="translate(-90.38 -122.55)"/><path d="M198.33 185.74l-.92-7.28a5.31 5.31 0 01.6-3.3 3 3 0 012.19-1.67c2.4-.33-1.2-1.83-1.2-1.83l3.86 2.25-1.14 4.36a47.51 47.51 0 01-.44 9.4c-.75 5.33-2.95-1.93-2.95-1.93z" class="cls-23" transform="translate(-90.38 -122.55)"/><path d="M196 194l6.29-1.24-.67-2.66-2.55.59a3.22 3.22 0 01-2.55 2s-.79.19-.52 1.31" class="cls-3" transform="translate(-90.38 -122.55)"/><path d="M195 164.93s-2.88 7.42-6.29 11.53a9.68 9.68 0 005.76 1.43c3.19-.3 3.8-1 5.95-1s5.82.49 6.92 1.05 5.45-.19 5.94-.86-9.28-14.5-9.28-14.5z" class="cls-10" transform="translate(-90.38 -122.55)"/><path d="M190.51 150.06l-2.51-2.61s0-.1-.12-.25c-.35-.7-1.47-2.57-3.08-1.74-2 1-.57.86-.57.86.29-.48 1.27.36 1.27.36l.06.15c-.78 0-1.4.29-1.21.56s1.07.15 1.45.74c.25.39.73.28 1 .16l1.75 3.11z" class="cls-23" transform="translate(-90.38 -122.55)"/><path fill="#1d3300" d="M198.15 154.2l.93-3.43s-3.4 1.6-9.11-3.21c0 0-2.57-.48-3 2.53s7.68 5 7.68 5z" transform="translate(-90.38 -122.55)"/><path d="M194.57 146.93c-2.14.52-1.12 3.6-1.12 3.6l-.15 2.4 2.13.19c-.29-1.52-.58-2.84-.58-2.84s.64-.34 0-2c0 0 .2-1.28.73-1.11-.01.03 1.14-.77-1.01-.24z" class="cls-23" transform="translate(-90.38 -122.55)"/><path fill="#ffcf8f" d="M191.17 139.47c1.29-1.14 9-3.07 9-4.82 0-3.49-.1-6-4-6s-17.07 2.86-17.07 6.35 3.17 6.31 7.08 6.31a6.51 6.51 0 00.77 0l4.72 4.42z" transform="translate(-90.38 -122.55)"/><path fill="#ffbbfd" d="M93.8 23.76l2.93-2.07.67.29-3.36 2.53-1.03.26.79-1.01z"/><path d="M198.63 141.49s3.15-2.46 4.83 1c0 0 3.93 1.26 1.45 4.4 0 0 2.77 3.72-.91 5.48 0 0-8.57 2.25-6-1.93l-.13-1.83z" class="cls-27" transform="translate(-90.38 -122.55)"/><path d="M200 142.14s-1.12-2.53-2.69-.86a1.78 1.78 0 00-.72 1.45s-1.1 0-1.07.74 1.21.5 1.21.5l2.64-1.36z" class="cls-27" transform="translate(-90.38 -122.55)"/><path d="M201.56 151.71l-.56-2.81 2.4-4-3.4-2.73-1.29.23a1.91 1.91 0 00-1.09.64 6 6 0 01-2 1.58s-.69.26.81.69l-.41 1.24 1.34 2a8.36 8.36 0 00.72 2.78c.92 2.45 3.48.38 3.48.38z" class="cls-23" transform="translate(-90.38 -122.55)"/><path d="M200.27 145.82c-.45 1-.82 2.59-1.59 2.74-1.26.24-3.18-.05-3-.88a6.61 6.61 0 01.77-2.2c.11-.29.57 0 1.34.94.35.41.81 0 1.2-.59" class="cls-23" transform="translate(-90.38 -122.55)"/><circle cx="107.27" cy="21.52" r=".24" class="cls-8"/><rect width="1.33" height=".23" x="197.45" y="143.47" class="cls-27" rx=".11" transform="rotate(-141.13 131.3 98.26)"/><ellipse cx="197.66" cy="144.12" fill="none" stroke="#000" stroke-miterlimit="10" stroke-width=".1" rx=".78" ry=".66" transform="rotate(-52.42 27.99 174.63)"/><path fill="none" stroke="#000" stroke-linecap="round" stroke-linejoin="round" stroke-width=".1" d="M107.87 21.91l1.75 1.16"/><path fill="#2a4f02" d="M201.34 150.33c-2.48 1.34-3.7 0-3.7 0-.42.1-1.53 1.76-1.53 1.76-1.29 2.82-2 12.59-1.06 13.15 2.6 1.51 10.63-.24 10.63-.24.88-5.7-4.34-14.67-4.34-14.67z" transform="translate(-90.38 -122.55)"/><path fill="#3d6607" d="M195.4 150.37a10.89 10.89 0 01-2-.05c-.39-.13-.91 5.77-.62 6.61s7.27 1.41 8 1.17 4.14-2.73 1.07-4.14-6.77 1.16-6.77 1.16 1.11.5.32-4.75z" transform="translate(-90.38 -122.55)"/><path d="M202.32 148a1 1 0 00-1.2-1.1c-.64.14-1.27.64-1.19 2.12a2.54 2.54 0 00.59 1.88 1.67 1.67 0 00.21 1.51c.54.53 2-.48 2-.48l1-.9c.61-1-.21-1.9-1-2.69l-.36-.34z" class="cls-27" transform="translate(-90.38 -122.55)"/><path d="M199.42 145.06a2.78 2.78 0 00.05-1.33c-.1-.22-1.67-.41-1.44-1.16s1.24-1.35 2.72-1.17a9.47 9.47 0 011.84.76 2.87 2.87 0 01.68 4.46l-.06.07s-1.24 2.12-1.88 1.33-1-.72-.59-1.11c0 0 1.95-.93.56-1.84-.26-.17-1.07.27-1.14.44M183 136.71l.09.26a.38.38 0 00-.26.55l.23.62-.29.1-.45-1.24.25-.14.08.21a.46.46 0 01.35-.36zM184.58 137.1l.18.2a.9.9 0 01-.49.43.7.7 0 11-.49-1.32.64.64 0 01.82.33l-.87.68a.44.44 0 00.46.07.65.65 0 00.39-.39zm-1 .11l.64-.5a.33.33 0 00-.38-.07.45.45 0 00-.24.57zM185.11 136.24l.21.6a.18.18 0 00.25.12.62.62 0 00.16-.1l.09.25a.68.68 0 01-.21.12.4.4 0 01-.56-.26l-.23-.63-.19.07v-.26l.15-.05-.09-.26.23-.26.15.41.34-.12.09.24zM186.76 135.33l.47 1.29-.27.1-.06-.14a.52.52 0 01-.32.31.5.5 0 01-.68-.35l-.27-.75.27-.15.28.76a.28.28 0 00.38.21.31.31 0 00.18-.44l-.25-.69zM187.84 134.94l.1.27a.38.38 0 00-.27.54l.23.62-.28.11-.46-1.25.26-.13.07.2a.49.49 0 01.35-.36zM189.42 135l.28.77-.28.1-.27-.73a.28.28 0 00-.39-.21.31.31 0 00-.18.44l.26.71-.29.11-.45-1.25.26-.14.06.16a.54.54 0 01.33-.31.49.49 0 01.67.35zM190.39 134.14l-.3.11v-.89l.25-.13zm.53-.19l-.3.11v-.89l.24-.13zM193 133.8a.7.7 0 01-.45.92.69.69 0 01-.92-.43l-.5-1.36.28-.14.34.94a.62.62 0 01.36-.35.69.69 0 01.89.42zm-.28.11a.43.43 0 10-.8.3.43.43 0 10.8-.3zM192.78 132.33l.27-.15.75 2-.29.1zM194.85 132.39l.46 1.29-.27.1v-.15a.53.53 0 01-.33.32.51.51 0 01-.67-.35l-.27-.75.27-.15.27.76a.3.3 0 00.39.21.33.33 0 00.18-.44l-.25-.69zM196.61 132.73l.17.19a.85.85 0 01-.48.43.7.7 0 11-.49-1.32.63.63 0 01.81.34l-.86.67a.46.46 0 00.46.08.71.71 0 00.39-.39zm-1 .1l.64-.5a.37.37 0 00-.38-.07.44.44 0 00-.24.57zM196.59 131l.3-.11v.89l-.24.13zm.53-.19l.3-.11v.89l-.25.13zM198 131.48a.22.22 0 01.13-.28.21.21 0 01.29.13.22.22 0 01-.14.28.21.21 0 01-.28-.13zm.31.65l.32-.12v.93l-.26.14z" class="cls-27" transform="translate(-90.38 -122.55)"/><path d="M122.13 155.27a1.66 1.66 0 011.13-1.07l.08.27a1.36 1.36 0 00-.93.89 1.41 1.41 0 00.17 1.29l-.22.16a1.68 1.68 0 01-.23-1.54zM123.58 155.6l-.21.6a.17.17 0 00.11.25.58.58 0 00.18 0l-.08.25a.6.6 0 01-.25 0 .41.41 0 01-.26-.56l.22-.63-.19-.07.12-.23.15.05.09-.26.34-.05-.14.41.35.12-.08.25zM125.48 156l-1.55 1.6-.31-.11.65-.63-.13-1.32.31.11.07 1 .65-.72zM126.84 157.16a.69.69 0 01-.87.45.6.6 0 01-.37-.34l-.27.8-.33-.07.66-1.89h.28l-.08.21a.58.58 0 01.53-.06.68.68 0 01.45.9zm-.28-.09a.44.44 0 00-.27-.56.42.42 0 00-.54.27.43.43 0 10.81.29zM128.12 157.85v.26a.88.88 0 01-.64 0 .71.71 0 11.45-1.34.64.64 0 01.42.78h-1.09a.41.41 0 00.3.35.68.68 0 00.56-.05zm-.82-.54h.81a.37.37 0 00-.25-.3.44.44 0 00-.56.3zM129.16 157.84l1.22.42-.08.24-1.22-.42zm.2-.55l1.21.42-.08.24-1.22-.42zM130.61 158.34l1.22.43-.08.24-1.22-.43zm.2-.55l1.22.42-.09.24-1.22-.42zM132.07 158.85l1.21.42-.08.24-1.22-.42zm.19-.56l1.22.42-.09.25-1.22-.43zM134.49 159.21l-.3-.1.57-.69.27.05zm.53.19l-.3-.11.56-.69.27.05zM136.07 160.44l-.74-.26-.44.49-.33-.12 1.66-1.73.22 2.39-.33-.12zm0-.31v-.67l-.46.5zM137.22 159.25l.3.1-.52.65h-.27zm.53.18l.3.11-.57.69h-.27zM137.45 161.81a1.42 1.42 0 00.76-2.18l.23-.16a1.63 1.63 0 01.22 1.53 1.66 1.66 0 01-1.13 1.07z" class="cls-10" transform="translate(-90.38 -122.55)"/></svg>