<svg xmlns="http://www.w3.org/2000/svg" xmlns:xlink="http://www.w3.org/1999/xlink" id="svg4863" version="1.1" viewBox="0 0 48 48">
    <!-- CC Attribution Sharealike: Rickterto -->
    <defs id="defs4865">
        <linearGradient id="linearGradient4435">
            <stop id="stop4437" offset="0" stop-color="#729fcf" stop-opacity="1"/>
            <stop id="stop4439" offset="1" stop-color="#3465a4" stop-opacity="1"/>
        </linearGradient>
        <linearGradient id="linearGradient4423">
            <stop id="stop4425" offset="0" stop-color="#babdb6" stop-opacity="1"/>
            <stop id="stop4427" offset="1" stop-color="#000" stop-opacity="0"/>
        </linearGradient>
        <linearGradient id="linearGradient4429" x1="22" x2="85.8" y1="961.6" y2="1043.6" gradientTransform="matrix(.99898 0 0 .99898 0 1)" gradientUnits="userSpaceOnUse" xlink:href="#linearGradient4423"/>
        <linearGradient id="linearGradient4441" x1="34.1" x2="79.7" y1="967.8" y2="1047.6" gradientUnits="userSpaceOnUse" xlink:href="#linearGradient4435"/>
    </defs>
    <g id="layer1" transform="translate(0 -1004.4)">
        <g id="g4464" fill-rule="nonzero" stroke-dasharray="none" stroke-miterlimit="4" stroke-opacity="1" transform="matrix(.6365 0 0 .57 -9 456)">
            <rect id="rect4443" width="41.1" height="77.9" x="31.2" y="966.4" fill="#000" fill-opacity="1" stroke="#000" stroke-width="1" ry="6.2"/>
            <rect id="rect4187" width="41.1" height="77.9" x="31.2" y="963.9" fill="#2e3436" fill-opacity="1" stroke="#000" stroke-width="1" ry="6.2"/>
            <path id="rect4408" fill="#555753" fill-opacity="1" stroke="none" stroke-width="15" d="M35.9 966l3.9 1.5h24L67 966c3-1.3 4.4 1 4.4 6v61.8a6 6 0 01-6 5.8H38a6 6 0 01-6-5.8v-61.9c0-3.2.9-7 4-5.9z"/>
            <rect id="rect4189" width="32" height="60.5" x="35.8" y="969" fill="#3465a4" fill-opacity="1" stroke="none" stroke-width="15" ry="0"/>
            <rect id="rect4403" width="15.6" height="1.6" x="44" y="965.5" fill="#fff" fill-opacity="1" stroke="none" stroke-width="15" ry=".8"/>
            <rect id="rect4431" width="34.1" height="64.6" x="34.7" y="968.8" fill="url(#linearGradient4441)" fill-opacity="1" stroke="none" stroke-width="15" ry="2.5"/>
            <path id="rect4411" fill="#729fcf" fill-opacity="1" stroke="none" stroke-width="15" d="M37.2 968.8h29.1c1.4 0 2.5 1.1 2.5 2.5v44c-10-16.7-23.7-3-34.1-17.4v-26.6c0-1.4 1.1-2.5 2.5-2.5z"/>
            <rect id="rect4421" width="40" height="75.8" x="31.7" y="964.8" fill="none" fill-opacity="1" stroke="url(#linearGradient4429)" stroke-width="1" ry="6.1"/>
            <g id="g4459" transform="translate(-2.9 .1)">
                <circle id="path4447" cx="54.6" cy="1036.4" r="2.5" fill="#eeeeec" fill-opacity="1" stroke="#d3d7cf" stroke-width=".7"/>
                <path id="rect4452" fill="#73d216" fill-opacity="1" stroke="#4e9a06" stroke-width=".1" d="M54.6 1035.3l-1.3 1.2h.4v1h1.8v-1h.5l-1.4-1.2z"/>
                <path id="circle4449" fill="#fff" fill-opacity=".7" stroke="none" stroke-width="1" d="M56.8 1036.2c-2.5 2.2-4-1.3-4.3 0 0-1 1-2 2.1-2 1.2 0 2.2 1 2.2 2z"/>
            </g>
        </g>
    </g>
</svg>